<svg xmlns="http://www.w3.org/2000/svg" xmlns:xlink="http://www.w3.org/1999/xlink" viewBox="0 0 1303.57 601"><defs><clipPath id="a" transform="translate(-21.37 -83.5)"><path d="M506,360.86,344.46,522.46,506,684.06H321.4L159.8,522.46l161.6-161.6ZM321.4,83.94l-300,300L113.7,476.3,506,83.94Z" fill="none"/></clipPath><linearGradient id="e" x1="4537.2" y1="-9502.43" x2="5653.21" y2="-8386.43" gradientTransform="matrix(0.06, 0, 0, -0.06, -0.49, 47.11)" gradientUnits="userSpaceOnUse"><stop offset="0" stop-color="#1a237e" stop-opacity="0.4"/><stop offset="1" stop-color="#1a237e" stop-opacity="0"/></linearGradient></defs><g clip-path="url(#a)"><path d="M159.86,522.46l92.27,92.33L506,360.86H321.4Z" transform="translate(-21.37 -83.5)" fill="#39cefd"/></g><g clip-path="url(#a)"><path d="M321.4,83.94H506L113.7,476.3,21.37,384Z" transform="translate(-21.37 -83.5)" fill="#39cefd"/></g><g clip-path="url(#a)"><path d="M252.13,614.79,321.4,684H506L344.46,522.46Z" transform="translate(-21.37 -83.5)" fill="#03569b"/></g><g clip-path="url(#a)"><path d="M389.06,567.35l-44.6-44.89-92.33,92.33Z" transform="translate(-21.37 -83.5)" fill="url(#e)"/></g><g clip-path="url(#a)"><path d="M159.85,522.43l92.33-92.33,92.33,92.33-92.33,92.33Z" transform="translate(-21.37 -83.5)" fill="#16b9fd"/></g><path d="M1176,300.5l-60.14,55.95L1060,243.89l28.88-64.74c7.51-13.14,19.22-13,26.55,0Z" transform="translate(-21.37 -83.5)" fill="#ffa000"/><path d="M1060,243.89l55.8,112.56L891.11,565.5Z" transform="translate(-21.37 -83.5)" fill="#f57f17"/><path d="M1241.75,215c10.74-10.33,21.85-6.8,24.69,7.83l58.5,339.92L1131,679.13c-6.76,3.76-24.78,5.37-24.78,5.37s-16.41-2-22.66-5.63L891.11,565.5Z" transform="translate(-21.37 -83.5)" fill="#ffca28"/><path d="M1060,243.89,891.12,565.5l75.22-470c2.77-14.64,11.11-16,18.54-3.13Z" transform="translate(-21.37 -83.5)" fill="#ffa000"/><path d="M688,342.13v37h35.57v9.44H688v37.31H678V388.56H642.39v-9.44H678v-37Z" transform="translate(-21.37 -83.5)" fill="#2d394a"/></svg>