<?xml version="1.0" encoding="UTF-8"?>
<svg width="1428px" height="1428px" viewBox="0 0 1428 1428" version="1.1" xmlns="http://www.w3.org/2000/svg" xmlns:xlink="http://www.w3.org/1999/xlink">
    <title>f_logo_RGB-White_1024</title>
    <g id="f_logo_RGB-White_1024" stroke="none" stroke-width="1" fill="none" fill-rule="evenodd">
        <path d="M1031.76618,715.821184 C1031.76618,540.23251 889.423667,397.89 713.834994,397.89 C538.24632,397.89 395.90381,540.23251 395.90381,715.821184 C395.90381,874.509827 512.166649,1006.03895 664.158246,1029.89 L664.158246,807.723166 L583.433532,807.723166 L583.433532,715.821184 L664.158246,715.821184 L664.158246,645.77697 C664.158246,566.095467 711.623137,522.081869 784.245574,522.081869 C819.029853,522.081869 855.413724,528.291462 855.413724,528.291462 L855.413724,606.532339 L815.323347,606.532339 C775.82847,606.532339 763.511741,631.039742 763.511741,656.182385 L763.511741,715.821184 L851.687968,715.821184 L837.592191,807.723166 L763.511741,807.723166 L763.511741,1029.89 C915.503339,1006.03895 1031.76618,874.509827 1031.76618,715.821184" id="Fill-1" fill="#FFFFFE"></path>
    </g>
</svg>