<svg xmlns="http://www.w3.org/2000/svg" width="693.333" height="693.333" preserveAspectRatio="xMidYMid meet" version="1.0" viewBox="0 0 520 520"><metadata>Created by potrace 1.11, written by Peter Selinger 2001-2013</metadata><g fill="#000" stroke="none"><path d="M784 3394 l-751 -754 230 -230 c127 -127 233 -230 236 -230 3 0 449 444 990 985 l985 985 -470 -1 -469 -1 -751 -754z" transform="translate(0.000000,520.000000) scale(0.100000,-0.100000)"/><path d="M3349 4116 c-34 -17 -54 -87 -64 -222 -1 -17 -4 -35 -8 -40 -6 -11 -21 -114 -22 -156 0 -16 -3 -28 -7 -28 -4 0 -7 -8 -6 -17 0 -10 -3 -36 -6 -58 -15 -86 -25 -152 -31 -190 -3 -22 -7 -51 -10 -65 -20 -135 -38 -250 -50 -325 -8 -49 -17 -108 -20 -130 -4 -22 -8 -51 -11 -65 -7 -35 -12 -67 -19 -125 -3 -27 -8 -61 -12 -75 -3 -14 -7 -38 -9 -55 -2 -16 -6 -46 -10 -65 -10 -59 -16 -104 -17 -127 -1 -13 -4 -23 -7 -23 -3 0 -5 -13 -4 -30 1 -17 -1 -30 -5 -30 -3 0 -7 -12 -7 -27 -4 -72 -10 -113 -15 -113 -3 0 -5 -11 -4 -25 2 -14 0 -25 -4 -25 -4 0 -7 -15 -8 -32 0 -18 -4 -51 -8 -73 -4 -22 -8 -51 -10 -65 -2 -14 -4 -25 -5 -25 -1 0 -3 -16 -5 -35 -2 -19 -7 -51 -10 -70 -4 -19 -8 -50 -8 -67 -1 -18 -5 -33 -8 -33 -4 0 -6 -15 -6 -32 1 -30 7 -36 67 -68 96 -53 180 -100 220 -123 19 -12 41 -22 49 -24 8 -1 18 -9 23 -18 5 -8 13 -13 19 -10 5 4 9 2 9 -3 0 -6 11 -13 24 -16 14 -3 31 -12 38 -19 7 -6 29 -20 48 -29 19 -10 62 -33 95 -51 33 -19 103 -58 155 -87 52 -29 113 -64 135 -77 22 -13 48 -26 58 -30 9 -3 17 -10 17 -15 0 -5 4 -7 9 -4 5 3 20 -4 35 -15 14 -11 26 -17 26 -12 0 4 4 2 9 -6 6 -9 29 -14 72 -14 54 0 74 5 129 35 36 20 92 50 125 68 33 18 96 53 140 78 44 25 103 57 130 71 28 14 52 28 55 32 3 3 20 12 38 20 17 8 32 18 32 22 0 5 4 6 9 3 5 -3 14 1 21 9 7 8 18 15 25 15 7 0 18 7 25 15 7 8 16 12 21 9 5 -3 9 -1 9 3 0 5 12 14 28 20 15 7 50 25 77 41 28 15 97 54 155 87 58 32 108 63 111 68 4 5 3 24 -1 43 -4 19 -6 34 -3 34 3 0 0 6 -6 13 -6 8 -8 16 -6 19 3 3 1 17 -4 32 -8 18 -7 26 0 26 8 0 8 4 1 13 -5 6 -13 37 -17 67 -5 30 -9 64 -11 75 -2 11 -7 38 -10 60 -4 22 -7 54 -8 70 -1 17 -4 32 -8 35 -3 3 -9 32 -13 64 -3 33 -8 62 -9 65 -2 3 -7 32 -10 64 -4 32 -9 64 -11 70 -2 7 -6 28 -9 47 -4 29 -27 173 -83 515 -3 22 -7 49 -8 60 -2 11 -8 47 -13 80 -17 93 -23 127 -28 165 -8 52 -12 75 -14 75 -2 0 -12 80 -11 98 0 9 -5 17 -10 17 -6 0 -8 4 -5 8 9 15 -46 37 -80 33 -7 0 -97 -87 -202 -192 l-191 -192 -18 39 c-10 22 -20 41 -23 44 -3 3 -25 43 -49 90 -66 129 -123 234 -132 246 -5 6 -6 14 -2 17 3 4 1 7 -6 7 -7 0 -9 5 -6 10 3 6 2 10 -4 10 -5 0 -15 16 -21 35 -6 19 -16 35 -22 35 -6 0 -8 3 -5 6 11 11 -34 44 -60 44 -35 0 -54 -23 -116 -140 -105 -200 -99 -190 -113 -175 -8 7 -14 21 -14 29 0 9 -4 16 -8 16 -4 0 -16 20 -26 45 -11 25 -23 45 -28 45 -5 0 -7 4 -4 9 4 5 3 11 -1 13 -5 1 -19 26 -33 53 -13 28 -35 67 -47 88 -13 20 -20 37 -16 37 5 0 3 4 -3 8 -6 4 -57 93 -113 199 -85 157 -108 194 -131 201 -19 7 -35 6 -51 -2z" transform="translate(0.000000,520.000000) scale(0.100000,-0.100000)"/><path d="M1135 2350 l-406 -406 407 -407 408 -407 465 0 465 0 -407 407 -408 407 406 406 406 406 -465 0 -465 0 -406 -406z" transform="translate(0.000000,520.000000) scale(0.100000,-0.100000)"/></g></svg>